<svg width="92" height="79" viewBox="0 0 92 79" fill="none" xmlns="http://www.w3.org/2000/svg">
<path d="M61.4546 39.5944C61.4546 48.1062 54.5764 54.9844 46.0646 54.9844C37.5528 54.9844 30.6748 48.1062 30.6748 39.5944C30.6748 31.0826 37.5528 24.2046 46.0646 24.2046C54.5764 24.2046 61.4546 31.0826 61.4546 39.5944Z" stroke="white" stroke-width="6.44831" stroke-linecap="round" stroke-linejoin="round"/>
<path d="M46.0646 75.1465C61.2396 75.1465 75.3829 66.2048 85.2274 50.7289C89.0963 44.6675 89.0963 34.4791 85.2274 28.4176C75.3829 12.9417 61.2396 4 46.0646 4C30.8895 4 16.7462 12.9417 6.90174 28.4176C3.03275 34.4791 3.03275 44.6675 6.90174 50.7289C16.7462 66.2048 30.8895 75.1465 46.0646 75.1465Z" stroke="white" stroke-width="6.44831" stroke-linecap="round" stroke-linejoin="round"/>
</svg>
