<svg width="85" height="85" viewBox="0 0 85 85" fill="none" xmlns="http://www.w3.org/2000/svg">
<path d="M42.0645 0C18.887 0 0 18.887 0 42.0645C0 65.2421 18.887 84.1291 42.0645 84.1291C65.2421 84.1291 84.1291 65.2421 84.1291 42.0645C84.1291 18.887 65.2421 0 42.0645 0ZM56.1982 51.7394C57.4181 52.9593 57.4181 54.9784 56.1982 56.1982C55.5673 56.8292 54.768 57.1236 53.9688 57.1236C53.1696 57.1236 52.3704 56.8292 51.7394 56.1982L42.0645 46.5234L32.3897 56.1982C31.7587 56.8292 30.9595 57.1236 30.1603 57.1236C29.3611 57.1236 28.5618 56.8292 27.9309 56.1982C26.711 54.9784 26.711 52.9593 27.9309 51.7394L37.6057 42.0645L27.9309 32.3897C26.711 31.1698 26.711 29.1507 27.9309 27.9309C29.1507 26.711 31.1698 26.711 32.3897 27.9309L42.0645 37.6057L51.7394 27.9309C52.9593 26.711 54.9784 26.711 56.1982 27.9309C57.4181 29.1507 57.4181 31.1698 56.1982 32.3897L46.5234 42.0645L56.1982 51.7394Z" fill="white"/>
</svg>
