<svg width="85" height="73" viewBox="0 0 85 73" fill="none" xmlns="http://www.w3.org/2000/svg">
<path d="M80.9742 24.0609C71.2573 8.79149 57.0395 0 42.0645 0C34.5771 0 27.2999 2.18736 20.6537 6.26762C14.0075 10.3899 8.03433 16.4052 3.15484 24.0609C-1.05161 30.6651 -1.05161 41.3915 3.15484 47.9957C12.8717 63.3072 27.0896 72.0566 42.0645 72.0566C49.552 72.0566 56.8292 69.8693 63.4754 65.789C70.1216 61.6667 76.0948 55.6514 80.9742 47.9957C85.1807 41.4336 85.1807 30.6651 80.9742 24.0609ZM42.0645 53.0434C32.6421 53.0434 25.0705 45.4297 25.0705 36.0494C25.0705 26.6689 32.6421 19.0552 42.0645 19.0552C51.487 19.0552 59.0586 26.6689 59.0586 36.0494C59.0586 45.4297 51.487 53.0434 42.0645 53.0434Z" fill="white"/>
<path d="M42.0578 24.0227C35.4537 24.0227 30.0696 29.4069 30.0696 36.0531C30.0696 42.6572 35.4537 48.0415 42.0578 48.0415C48.6619 48.0415 54.0883 42.6572 54.0883 36.0531C54.0883 29.4489 48.6619 24.0227 42.0578 24.0227Z" fill="white"/>
</svg>
