<svg width="92" height="89" viewBox="0 0 92 89" fill="none" xmlns="http://www.w3.org/2000/svg">
<path d="M7.18115 26.2063L43.2258 47.0656L79.0256 26.3286" stroke="white" stroke-width="6.12312" stroke-linecap="round" stroke-linejoin="round"/>
<path d="M43.2263 84.0496V47.0251" stroke="white" stroke-width="6.12312" stroke-linecap="round" stroke-linejoin="round"/>
<path d="M51.6786 83.6824C49.3518 84.9887 46.2902 85.6418 43.2287 85.6418C40.1671 85.6418 37.1056 84.9887 34.7788 83.6824L12.9805 71.5994C8.04122 68.8645 4 62.0066 4 56.3733" stroke="white" stroke-width="6.12312" stroke-linecap="round" stroke-linejoin="round"/>
<path d="M82.4574 48.2089V33.2685C82.4574 27.6352 78.4162 20.7774 73.4769 18.0424L51.6786 5.9594C47.025 3.34687 39.4324 3.34687 34.7788 5.9594L12.9805 18.0424C8.04122 20.7774 4 27.6352 4 33.2685" stroke="white" stroke-width="6.12312" stroke-linecap="round" stroke-linejoin="round"/>
<path d="M72.6171 83.1922C79.8314 83.1922 85.6797 77.3438 85.6797 70.1295C85.6797 62.9153 79.8314 57.0669 72.6171 57.0669C65.4028 57.0669 59.5544 62.9153 59.5544 70.1295C59.5544 77.3438 65.4028 83.1922 72.6171 83.1922Z" stroke="white" stroke-width="6.12312" stroke-linecap="round" stroke-linejoin="round"/>
<path d="M88.129 85.6416L84.0469 81.5596" stroke="white" stroke-width="6.12312" stroke-linecap="round" stroke-linejoin="round"/>
</svg>
