<svg width="74" height="79" viewBox="0 0 74 79" fill="none" xmlns="http://www.w3.org/2000/svg">
<path d="M19.5248 78.3953C16.1862 78.3953 13.0166 77.5923 10.2273 75.9864C3.63449 72.1828 0 64.449 0 54.2639V24.1314C0 13.9041 3.63449 6.21249 10.2273 2.40895C16.8201 -1.3946 25.3147 -0.676149 34.1896 4.4375L60.265 19.4826C69.0977 24.5963 74 31.6117 74 39.2188C74 46.8259 69.1399 53.8413 60.265 58.955L34.1896 74.0001C29.076 76.9161 24.0891 78.3953 19.5248 78.3953ZM19.5248 6.29701C17.2427 6.29701 15.2142 6.80415 13.3969 7.86069C8.83267 10.4809 6.33923 16.2707 6.33923 24.1314V54.2217C6.33923 62.0823 8.83267 67.8299 13.3969 70.4924C17.9612 73.1549 24.2159 72.3941 31.02 68.4638L57.0954 53.4187C63.8995 49.4884 67.6608 44.4592 67.6608 39.1766C67.6608 33.8939 63.8995 28.8647 57.0954 24.9344L31.02 9.88924C26.8784 7.5226 22.9903 6.29701 19.5248 6.29701Z" fill="white"/>
</svg>
