<svg width="85" height="85" viewBox="0 0 85 85" fill="none" xmlns="http://www.w3.org/2000/svg">
<path d="M42.0645 0C18.887 0 0 18.887 0 42.0645C0 65.2421 18.887 84.1291 42.0645 84.1291C65.2421 84.1291 84.1291 65.2421 84.1291 42.0645C84.1291 18.887 65.2421 0 42.0645 0ZM53.8006 44.294L38.9518 59.1427C38.3208 59.7737 37.5216 60.0682 36.7223 60.0682C35.9231 60.0682 35.1239 59.7737 34.4929 59.1427C33.2731 57.9229 33.2731 55.9038 34.4929 54.6839L47.1123 42.0645L34.4929 29.4452C33.2731 28.2253 33.2731 26.2062 34.4929 24.9863C35.7128 23.7665 37.7319 23.7665 38.9518 24.9863L53.8006 39.8351C55.0625 41.055 55.0625 43.0741 53.8006 44.294Z" fill="white"/>
</svg>
