<svg width="85" height="85" viewBox="0 0 85 85" fill="none" xmlns="http://www.w3.org/2000/svg">
<path d="M63.0192 13.2498L40.1956 0.969496C37.7719 -0.323165 34.9038 -0.323165 32.48 0.969496L9.69674 13.2498C8.04052 14.1789 6.99023 15.9563 6.99023 17.8953C6.99023 19.8747 8.00013 21.6521 9.69674 22.5408L32.5204 34.8209C33.7323 35.4672 35.0653 35.7908 36.358 35.7908C37.6507 35.7908 39.0241 35.4672 40.1956 34.8209L63.0192 22.5408C64.6754 21.6521 65.7257 19.8747 65.7257 17.8953C65.7257 15.9563 64.6754 14.1789 63.0192 13.2498Z" fill="white"/>
<path d="M28.7617 39.1003L7.55399 28.5166C5.89777 27.6683 4.03957 27.7895 2.46414 28.7186C0.9291 29.6881 0 31.3443 0 33.1622V53.1984C0 56.6725 1.93899 59.7829 5.04946 61.3584L26.2572 71.942C26.9843 72.3056 27.7922 72.5076 28.6001 72.5076C29.5292 72.5076 30.4987 72.2248 31.347 71.74C32.8821 70.7705 33.8112 69.1143 33.8112 67.2965V47.2603C33.7708 43.7862 31.8318 40.6758 28.7617 39.1003Z" fill="white"/>
<path d="M72.7146 33.1622V43.0995C70.7756 42.534 68.7155 42.2916 66.6553 42.2916C61.1615 42.2916 55.7888 44.1902 51.5473 47.5834C45.7303 52.1481 42.4179 59.0558 42.4179 66.529C42.4179 68.5084 42.6603 70.4878 43.1854 72.3864C42.5795 72.3056 41.9735 72.0632 41.408 71.6996C39.8729 70.7705 38.9438 69.1143 38.9438 67.2965V47.2603C38.9438 43.7862 40.8828 40.6758 43.9529 39.1003L65.1606 28.5166C66.8169 27.6683 68.6751 27.7895 70.2505 28.7186C71.7855 29.6881 72.7146 31.3443 72.7146 33.1622Z" fill="white"/>
<path d="M83.1343 78.641L79.7411 75.2478C81.5185 72.5816 82.5688 69.35 82.5688 65.9164C82.5688 56.5042 74.934 48.8694 65.5218 48.8694C56.1096 48.8694 48.4749 56.5042 48.4749 65.9164C48.4749 75.3286 56.1096 82.9633 65.5218 82.9633C68.9555 82.9633 72.1871 81.913 74.8532 80.1356L78.2465 83.5289C78.9332 84.2156 79.7815 84.5388 80.6702 84.5388C81.5589 84.5388 82.4476 84.2156 83.0939 83.5289C84.4674 82.1554 84.4674 79.9741 83.1343 78.641Z" fill="white"/>
</svg>
